<?xml version="1.0" encoding="UTF-8" standalone="no"?>
<!-- Created with Inkscape (http://www.inkscape.org/) -->

<svg
   width="53.820507mm"
   height="27.627333mm"
   viewBox="0 0 53.820507 27.627332"
   version="1.1"
   id="svg2128"
   inkscape:version="1.2.2 (b0a8486541, 2022-12-01)"
   sodipodi:docname="obs-pro.svg"
   xmlns:inkscape="http://www.inkscape.org/namespaces/inkscape"
   xmlns:sodipodi="http://sodipodi.sourceforge.net/DTD/sodipodi-0.dtd"
   xmlns="http://www.w3.org/2000/svg"
   xmlns:svg="http://www.w3.org/2000/svg">
  <sodipodi:namedview
     id="namedview2130"
     pagecolor="#ffffff"
     bordercolor="#666666"
     borderopacity="1.0"
     inkscape:showpageshadow="2"
     inkscape:pageopacity="0.0"
     inkscape:pagecheckerboard="0"
     inkscape:deskcolor="#d1d1d1"
     inkscape:document-units="mm"
     showgrid="false"
     inkscape:zoom="0.914906"
     inkscape:cx="-36.615783"
     inkscape:cy="-103.2893"
     inkscape:window-width="1390"
     inkscape:window-height="1230"
     inkscape:window-x="1051"
     inkscape:window-y="106"
     inkscape:window-maximized="0"
     inkscape:current-layer="layer1" />
  <defs
     id="defs2125" />
  <g
     inkscape:label="Layer 1"
     inkscape:groupmode="layer"
     id="layer1"
     transform="translate(-71.602162,-175.60864)">
    <path
       id="path1539"
       style="color:#000000;fill:#000000;-inkscape-stroke:none"
       d="m 114.80469,175.60864 c -0.51474,-3e-5 -0.94336,0.43047 -0.9462,0.95033 l -0.0434,8.67854 c -1e-5,0.001 -1e-5,0.002 0,0.003 -1.5e-4,0.12728 0.0252,0.25262 0.0739,0.37 l 2.0345,4.94596 c 0.0507,0.14278 0.10771,0.2819 0.1726,0.41806 3.3e-4,8.7e-4 1.9e-4,0.002 5.2e-4,0.003 7e-4,0.002 0.002,0.004 0.003,0.006 0.003,0.006 0.006,0.0128 0.009,0.0191 5.6e-4,10e-4 0.002,10e-4 0.003,0.003 0.6021,1.23867 1.76634,2.15082 3.15071,2.39727 -8.1e-4,1.70718 -0.14782,3.29496 -0.75396,4.61471 -0.61398,1.33682 -1.6682,2.45117 -3.72484,3.27525 -1.52505,0.61108 -3.20588,0.58444 -4.55476,-0.0724 -0.78583,-0.3826 -1.4717,-0.96829 -1.97249,-1.79989 l -1.39216,0.56328 c 0.65959,1.1788 1.61146,2.05234 2.70836,2.5864 1.77048,0.86201 3.88009,0.8724 5.76967,0.11524 2.34062,-0.93787 3.76548,-2.37773 4.52944,-4.0411 0.75425,-1.6422 0.89047,-3.45181 0.8909,-5.24154 2.03818,-0.36051 3.6003,-2.16602 3.6003,-4.32376 v -3.86747 h 0.11576 5.1e-4 c 0.51585,-0.001 0.94364,-0.43502 0.94362,-0.95601 v -6.58255 c 4.3e-4,-0.52128 -0.42749,-0.95427 -0.94362,-0.95549 h -5.1e-4 -0.11628 v -0.15245 c 4.2e-4,-0.52212 -0.42923,-0.95552 -0.94619,-0.9555 z m 0.0481,1.00459 h 8.51524 v 0.60565 c -1.5e-4,0.27768 0.22271,0.50284 0.49764,0.50281 h 0.56328 v 6.48436 h -0.56328 c -0.27473,-4e-5 -0.4975,0.22481 -0.49764,0.50229 v 4.36976 c 0,1.86893 -1.50183,3.38584 -3.35225,3.38584 -1.3234,0 -2.46719,-0.77934 -3.01274,-1.90427 -0.003,-0.005 -0.005,-0.009 -0.008,-0.014 -6.2e-4,-0.001 -2.1e-4,-0.003 -5.2e-4,-0.004 -0.0532,-0.11142 -0.10034,-0.22578 -0.14159,-0.34417 -0.003,-0.009 -0.006,-0.0173 -0.009,-0.0258 l -2.03243,-4.94079 z m 1.60455,1.76578 c -0.35745,-8e-5 -0.64721,0.29268 -0.64699,0.65371 v 3.63751 c 7e-5,0.36082 0.28974,0.65327 0.64699,0.65319 h 6.24355 c 0.35726,8e-5 0.64693,-0.29237 0.64699,-0.65319 v -3.63751 c 2.3e-4,-0.36103 -0.28953,-0.65379 -0.64699,-0.65371 z m -19.429298,0.96739 -1.26969,0.001 v 0.99994 h 1.26348 l 0.17002,0.006 0.1602,0.0114 0.15813,0.0196 0.15658,0.0274 0.15193,0.0351 0.15037,0.0429 0.14676,0.0491 0.14263,0.0563 0.14056,0.0625 0.13643,0.0703 0.13126,0.0765 0.12867,0.0816 0.12299,0.0879 0.11937,0.092 0.11524,0.0997 0.0155,0.0155 0.68937,-0.72451 -0.02532,-0.0233 a 0.50004999,0.50004999 0 0 0 -0.01757,-0.016 l -0.13281,-0.11524 a 0.50004999,0.50004999 0 0 0 -0.01757,-0.0155 l -0.1385,-0.10749 a 0.50004999,0.50004999 0 0 0 -0.01963,-0.0134 l -0.14263,-0.10181 a 0.50004999,0.50004999 0 0 0 -0.01964,-0.0134 l -0.14831,-0.0961 a 0.50004999,0.50004999 0 0 0 -0.0217,-0.0114 l -0.15193,-0.0879 a 0.50004999,0.50004999 0 0 0 -0.0217,-0.0119 l -0.15813,-0.0822 a 0.50004999,0.50004999 0 0 0 -0.02171,-0.01 l -0.16226,-0.0724 a 0.50004999,0.50004999 0 0 0 -0.02326,-0.01 l -0.16588,-0.0667 a 0.50004999,0.50004999 0 0 0 -0.0217,-0.008 l -0.17002,-0.0568 a 0.50004999,0.50004999 0 0 0 -0.02532,-0.008 l -0.17363,-0.0491 a 0.50004999,0.50004999 0 0 0 -0.02326,-0.006 l -0.17776,-0.0413 a 0.50004999,0.50004999 0 0 0 -0.02377,-0.006 l -0.17932,-0.0315 a 0.50004999,0.50004999 0 0 0 -0.02532,-0.004 l -0.18397,-0.0238 a 0.50004999,0.50004999 0 0 0 -0.02532,-0.002 l -0.18552,-0.014 a 0.50004999,0.50004999 0 0 0 -0.02532,-0.002 l -0.18966,-0.004 a 0.50004999,0.50004999 0 0 0 -0.01136,-0.002 z m -21.26951,0.001 v 0.99994 h 3.99976 v -0.99994 z m 4.9997,0 v 0.99994 h 4.00027 v -0.99994 z m 5.00021,0 v 0.99994 h 3.99976 v -0.99994 z m 4.99969,0 v 0.99994 h 4.00028 v -0.99994 z m -16.0078,0.12299 -0.01912,0.006 a 0.50004999,0.50004999 0 0 0 -0.02378,0.006 l -0.17363,0.0491 a 0.50004999,0.50004999 0 0 0 -0.02325,0.008 l -0.17002,0.0568 a 0.50004999,0.50004999 0 0 0 -0.02325,0.008 l -0.1664,0.0667 a 0.50004999,0.50004999 0 0 0 -0.02325,0.01 l -0.16227,0.0723 a 0.50004999,0.50004999 0 0 0 -0.02119,0.01 l -0.15813,0.0822 a 0.50004999,0.50004999 0 0 0 -0.0217,0.0119 l -0.15245,0.0879 a 0.50004999,0.50004999 0 0 0 -0.02118,0.0114 l -0.14883,0.0961 a 0.50004999,0.50004999 0 0 0 -0.01912,0.0134 l -0.14263,0.1018 a 0.50004999,0.50004999 0 0 0 -0.01964,0.0134 l -0.13849,0.10749 a 0.50004999,0.50004999 0 0 0 -0.01809,0.0155 l -0.1328,0.11524 a 0.50004999,0.50004999 0 0 0 -0.01757,0.0155 l -0.12661,0.12144 a 0.50004999,0.50004999 0 0 0 -0.01757,0.0176 l -0.12144,0.1266 a 0.50004999,0.50004999 0 0 0 -0.0155,0.0181 l -0.11524,0.13281 a 0.50004999,0.50004999 0 0 0 -0.0155,0.0176 l -0.10749,0.13849 a 0.50004999,0.50004999 0 0 0 -0.01344,0.0196 l -0.1018,0.14263 a 0.50004999,0.50004999 0 0 0 -0.01344,0.0191 l -0.09611,0.14882 a 0.50004999,0.50004999 0 0 0 -0.01137,0.0212 l -0.08785,0.15245 a 0.50004999,0.50004999 0 0 0 -0.01189,0.0217 l -0.08216,0.15813 a 0.50004999,0.50004999 0 0 0 -0.0098,0.0212 l -0.07235,0.16226 a 0.50004999,0.50004999 0 0 0 -0.0098,0.0233 l -0.06666,0.16639 a 0.50004999,0.50004999 0 0 0 -0.0078,0.0233 l -0.05685,0.17001 a 0.50004999,0.50004999 0 0 0 -0.0078,0.0233 l -0.04909,0.17363 a 0.50004999,0.50004999 0 0 0 -0.0057,0.0238 l -0.01964,0.0837 0.97462,0.22272 0.0155,-0.0703 0.04289,-0.15037 0.04909,-0.14677 0.05633,-0.14211 0.06253,-0.14107 0.07028,-0.13436 0.07648,-0.13281 0.08165,-0.12919 0.08785,-0.12299 0.09198,-0.11886 0.09974,-0.11368 0.10542,-0.10904 0.10955,-0.10542 0.11317,-0.0997 0.11886,-0.092 0.12299,-0.0879 0.12919,-0.0822 0.13281,-0.076 0.13487,-0.0703 0.14056,-0.0625 0.14263,-0.0568 0.14625,-0.0486 0.15037,-0.0429 0.0083,-0.002 z m 25.816508,1.8495 -0.843878,0.53899 0.0062,0.006 0.07442,0.13281 0.07028,0.13487 0.06253,0.14056 0.05632,0.14263 0.04858,0.14624 0.0434,0.15038 0.0351,0.15245 0.0274,0.15658 0.0191,0.15813 0.014,0.16019 0.004,0.1695 v 1.98076 h 0.99994 v -0.53744 c 1.18342,0.0106 2.26995,-0.1157 3.13056,-0.0739 0.86265,0.0419 1.41866,0.20397 1.85932,0.72243 0.57334,0.67457 0.75587,1.21119 0.7891,1.83607 0.0332,0.62488 -0.12142,1.36268 -0.34985,2.26963 -0.36836,1.46252 -0.89584,3.34398 -0.79324,5.85028 l 1.48312,-0.59996 c -0.0104,-1.99466 0.41693,-3.50837 0.76326,-4.88342 0.23364,-0.92766 0.44349,-1.80113 0.39481,-2.71663 -0.0487,-0.9155 -0.39462,-1.8485 -1.14257,-2.72852 -0.77639,-0.91346 -1.87899,-1.19685 -2.9316,-1.24798 -0.19737,-0.01 -0.39566,-0.0126 -0.5948,-0.0114 -0.86295,0.005 -1.73954,0.092 -2.60242,0.0837 l -0.006,0.61082 v -0.56017 a 0.50004999,0.50004999 0 0 0 0,-5.2e-4 0.50004999,0.50004999 0 0 0 0,-5.2e-4 0.50004999,0.50004999 0 0 0 0,-5.1e-4 0.50004999,0.50004999 0 0 0 0,-5.2e-4 0.50004999,0.50004999 0 0 0 0,-5.2e-4 0.50004999,0.50004999 0 0 0 0,-5.1e-4 0.50004999,0.50004999 0 0 0 0,-5.2e-4 0.50004999,0.50004999 0 0 0 0,-5.2e-4 0.50004999,0.50004999 0 0 0 0,-5.1e-4 0.50004999,0.50004999 0 0 0 0,-5.2e-4 0.50004999,0.50004999 0 0 0 0,-5.2e-4 0.50004999,0.50004999 0 0 0 0,-5.1e-4 0.50004999,0.50004999 0 0 0 0,-5.2e-4 0.50004999,0.50004999 0 0 0 0,-5.2e-4 0.50004999,0.50004999 0 0 0 0,-5.2e-4 0.50004999,0.50004999 0 0 0 0,-5.1e-4 0.50004999,0.50004999 0 0 0 0,-5.2e-4 0.50004999,0.50004999 0 0 0 0,-5.2e-4 0.50004999,0.50004999 0 0 0 0,-5.1e-4 0.50004999,0.50004999 0 0 0 0,-5.2e-4 0.50004999,0.50004999 0 0 0 0,-5.2e-4 0.50004999,0.50004999 0 0 0 0,-5.1e-4 0.50004999,0.50004999 0 0 0 0,-5.2e-4 l -0.006,-0.18914 a 0.50004999,0.50004999 0 0 0 0,-0.0253 l -0.0155,-0.18551 a 0.50004999,0.50004999 0 0 0 -0.002,-0.0258 l -0.0232,-0.18345 a 0.50004999,0.50004999 0 0 0 -0.004,-0.0233 l -0.031,-0.1819 a 0.50004999,0.50004999 0 0 0 -0.006,-0.0233 l -0.0393,-0.17777 a 0.50004999,0.50004999 0 0 0 -0.008,-0.0233 l -0.0491,-0.17415 a 0.50004999,0.50004999 0 0 0 -0.008,-0.0232 l -0.0568,-0.17002 a 0.50004999,0.50004999 0 0 0 -0.008,-0.0232 l -0.0661,-0.16588 a 0.50004999,0.50004999 0 0 0 -0.0103,-0.0233 l -0.0724,-0.16226 a 0.50004999,0.50004999 0 0 0 -0.01,-0.0217 l -0.0822,-0.15813 a 0.50004999,0.50004999 0 0 0 -0.01,-0.0217 l -0.0878,-0.15193 a 0.50004999,0.50004999 0 0 0 -0.014,-0.0217 z M 81.071352,182.957 c -0.47414,0 -0.82838,0.43008 -0.82838,1.39733 v 0.49919 c 0,0.21217 0.01845,0.39784 0.05065,0.56018 0.11268,0.56807 0.40651,0.83716 0.77773,0.83716 0.47414,0 0.82475,-0.44273 0.82475,-1.39734 v -0.49919 c 0,-0.44163 -0.07383,-0.77006 -0.19843,-0.99787 -0.14833,-0.27113 -0.36866,-0.39946 -0.62632,-0.39946 z m 1.13791,0.0444 v 3.20239 h 0.5054 v -1.08107 h 0.28473 c 0.0385,0 0.075,-0.003 0.11111,-0.008 l -0.01189,-0.66508 c -0.0522,0.0224 -0.11485,0.0341 -0.1912,0.0341 h -0.19275 v -0.84078 h 0.19275 c 0.0692,0 0.12802,0.01 0.17725,0.0284 v -5.1e-4 c 0.13982,0.0526 0.20257,0.17882 0.20257,0.37052 0,0.2252 -0.05881,0.35271 -0.1881,0.40824 l 0.01189,0.66456 c 0.42099,-0.0536 0.67902,-0.41775 0.67902,-1.0728 0,-0.6737 -0.28383,-1.00416 -0.71675,-1.03715 h -5.1e-4 c -0.0241,-0.002 -0.04839,-0.003 -0.07339,-0.003 z m 1.79834,0 v 3.20187 h 1.32137 v -0.6382 h -0.81856 v -0.69867 h 0.72709 v -0.63872 h -0.72709 v -0.58446 h 0.81856 v -0.64182 z m 1.58078,0 v 3.20187 h 0.47388 v -1.76991 l 0.76843,1.76991 h 0.40772 v -3.20187 h -0.47439 v 1.79886 l -0.77411,-1.79886 z m -9.04337,0.44907 v 2.15852 h 0.632 v -0.76481 h 2.58537 v -0.632 h -2.58537 v -0.76171 z m 4.52634,0.14573 c 0.12737,0 0.218,0.0898 0.26871,0.28318 0.0311,0.11853 0.04755,0.27549 0.04755,0.47491 v 0.49919 c 0,0.52472 -0.11081,0.75551 -0.31626,0.75551 -0.20546,0 -0.31575,-0.23079 -0.31575,-0.75551 v -0.11782 -0.38137 c 0,-0.52472 0.11028,-0.75809 0.31575,-0.75809 z m -9.46919,0.0677 v 3.99976 h 0.99994 v -3.99976 z m 28.581718,2.82619 v 3.99975 h 0.99993 v -3.99975 z m -21.749058,0.25735 v 3.20187 h 0.50281 v -3.20187 z m 0.89813,0 v 3.20187 h 0.5023 v -0.84698 l 0.18345,-0.38292 0.45217,1.2299 h 0.60048 l -0.73019,-1.90635 0.6196,-1.29552 h -0.58498 l -0.54053,1.18804 v -1.18804 z m 1.96577,0 v 3.20187 h 1.32137 v -0.63872 h -0.81855 v -0.69867 h 0.72708 v -0.6382 h -0.72708 v -0.58498 h 0.81855 v -0.6413 z m -4.75061,0.003 v 3.19929 h 0.69298 0.10025 c 0.55632,0 0.78083,-0.40776 0.78083,-0.91984 a 0.8724206,0.8724206 0 0 0 -0.30075,-0.76171 0.85977682,0.85977682 0 0 0 0.24029,-0.66715 c 0,-0.565 -0.26884,-0.83111 -0.73174,-0.84852 -0.0162,-6e-4 -0.03187,-0.002 -0.04857,-0.002 z m 43.472798,0.0574 c -1.3188,0 -2.41536,1.06286 -2.41536,2.38125 0,1.3184 1.09656,2.38228 2.41536,2.38228 1.31881,0 2.4169,-1.06388 2.4169,-2.38228 0,-1.31839 -1.09809,-2.38125 -2.4169,-2.38125 z m -26.119848,0.12196 -0.17622,0.004 a 0.50004999,0.50004999 0 0 0 -0.02532,0.002 l -0.17364,0.0134 a 0.50004999,0.50004999 0 0 0 -0.02532,0.002 l -0.17001,0.0217 a 0.50004999,0.50004999 0 0 0 -0.02532,0.004 l -0.16795,0.0295 a 0.50004999,0.50004999 0 0 0 -0.02532,0.006 l -0.16434,0.0372 a 0.50004999,0.50004999 0 0 0 -0.02532,0.008 l -0.16226,0.045 a 0.50004999,0.50004999 0 0 0 -0.02325,0.008 l -0.06253,0.0217 0.32246,0.94723 0.04857,-0.0176 0.1385,-0.0393 0.14107,-0.0331 0.14418,-0.0253 0.14469,-0.0176 0.14832,-0.0119 0.15037,-0.004 0.15038,0.004 0.14831,0.0119 0.14676,0.0176 0.14263,0.0253 0.14056,0.0331 0.02946,0.008 0.2713,-0.96273 -0.03928,-0.0103 a 0.50004999,0.50004999 0 0 0 -0.02325,-0.008 l -0.16588,-0.0372 a 0.50004999,0.50004999 0 0 0 -0.02326,-0.006 l -0.16846,-0.0289 a 0.50004999,0.50004999 0 0 0 -0.02532,-0.004 l -0.17157,-0.0217 a 0.50004999,0.50004999 0 0 0 -0.02532,-0.002 l -0.17208,-0.0134 a 0.50004999,0.50004999 0 0 0 -0.02532,-0.002 l -0.1757,-0.004 a 0.50004999,0.50004999 0 0 0 -0.02532,0 z m -7.30137,0.28267 v 0.76171 h -3.62872 v 0.6382 h 3.62872 v 0.75861 h 0.63872 v -2.15852 z m -9.54619,0.17001 h 0.16434 c 0.035,0 0.06658,0.002 0.09508,0.006 v -5.1e-4 c 0.19792,0.0247 0.2465,0.13374 0.2465,0.31057 0,0.1913 -0.08304,0.27132 -0.26304,0.27957 -0.0104,4.8e-4 -0.02,0.002 -0.031,0.002 h -0.21188 z m 18.93528,0.14315 -0.53898,0.84181 0.09353,0.0605 0.11317,0.0801 0.11162,0.0879 0.10542,0.092 0.10129,0.0956 0.09612,0.1018 0.09147,0.10542 0.08785,0.11111 0.08009,0.11317 0.07649,0.11937 0.07028,0.12092 0.06459,0.12713 0.02326,0.0506 0.91208,-0.41186 -0.02945,-0.0625 a 0.50004999,0.50004999 0 0 0 -0.01137,-0.0217 l -0.07441,-0.14831 a 0.50004999,0.50004999 0 0 0 -0.01189,-0.0217 l -0.08165,-0.14263 a 0.50004999,0.50004999 0 0 0 -0.01395,-0.0191 l -0.08785,-0.139 a 0.50004999,0.50004999 0 0 0 -0.01344,-0.0212 l -0.09612,-0.13281 a 0.50004999,0.50004999 0 0 0 -0.01343,-0.0196 l -0.1018,-0.12867 a 0.50004999,0.50004999 0 0 0 -0.01551,-0.0181 l -0.10748,-0.12454 a 0.50004999,0.50004999 0 0 0 -0.01551,-0.0176 l -0.11317,-0.11937 a 0.50004999,0.50004999 0 0 0 -0.01757,-0.0155 l -0.1173,-0.11318 a 0.50004999,0.50004999 0 0 0 -0.01757,-0.016 l -0.12506,-0.10748 a 0.50004999,0.50004999 0 0 0 -0.01757,-0.0155 l -0.12867,-0.10128 a 0.50004999,0.50004999 0 0 0 -0.01964,-0.0139 l -0.13488,-0.0956 a 0.50004999,0.50004999 0 0 0 -0.01963,-0.0134 z m -4.33203,0.12092 -0.07648,0.0548 a 0.50004999,0.50004999 0 0 0 -0.01912,0.0139 l -0.12919,0.10128 a 0.50004999,0.50004999 0 0 0 -0.01913,0.0155 l -0.1235,0.10748 a 0.50004999,0.50004999 0 0 0 -0.01757,0.0155 l -0.11886,0.11369 a 0.50004999,0.50004999 0 0 0 -0.01757,0.0155 l -0.11369,0.11885 a 0.50004999,0.50004999 0 0 0 -0.0155,0.0176 l -0.10749,0.12506 a 0.50004999,0.50004999 0 0 0 -0.0155,0.0176 l -0.09922,0.12919 a 0.50004999,0.50004999 0 0 0 -0.01602,0.0191 l -0.0956,0.13333 a 0.50004999,0.50004999 0 0 0 -0.01188,0.0212 l -0.0894,0.13849 a 0.50004999,0.50004999 0 0 0 -0.01189,0.0196 l -0.08217,0.14263 a 0.50004999,0.50004999 0 0 0 -0.01136,0.0217 l -0.07649,0.14831 a 0.50004999,0.50004999 0 0 0 -0.0098,0.0217 l -0.06822,0.15038 a 0.50004999,0.50004999 0 0 0 -0.01033,0.0233 l -0.03514,0.0899 0.92966,0.3669 0.03152,-0.078 0.05839,-0.12867 0.0646,-0.12713 0.06821,-0.12092 0.07597,-0.11937 0.08216,-0.11317 0.08579,-0.11162 0.09198,-0.10542 0.09767,-0.10129 0.1018,-0.0956 0.10542,-0.092 0.10904,-0.0879 0.06873,-0.047 z m 28.364158,0.25993 c 0.74874,0 1.32808,0.57714 1.32808,1.28261 0,0.70548 -0.57934,1.28364 -1.32808,1.28364 -0.74873,0 -1.32757,-0.57816 -1.32757,-1.28364 0,-0.70547 0.57884,-1.28261 1.32757,-1.28261 z m -42.967408,0.7028 h 0.20258 c 0.008,0 0.01483,10e-4 0.02273,10e-4 v 5.2e-4 c 0.23911,0.005 0.34727,0.0953 0.34727,0.34623 0,0.2592 -0.10785,0.3545 -0.33228,0.3545 h -0.03462 v -5.1e-4 h -0.20568 z m -5.45134,0.0548 v 4.00027 h 0.99994 v -4.00027 z m 26.19116,1.65829 -0.99218,0.12506 0.01188,0.0997 0.01137,0.14831 0.0041,0.13694 v 0.0134 0.0119 l -0.0041,0.1385 -0.01137,0.14831 -0.01757,0.14469 -0.02532,0.14469 -0.03359,0.14056 -0.03876,0.1385 -0.04702,0.13487 -0.05064,0.13281 -0.05892,0.12868 -0.06459,0.12505 -0.07028,0.12144 -0.06821,0.10749 0.8418,0.53898 0.07442,-0.11523 a 0.50004999,0.50004999 0 0 0 0.01343,-0.0217 l 0.08217,-0.14262 a 0.50004999,0.50004999 0 0 0 0.01137,-0.0212 l 0.07441,-0.14883 a 0.50004999,0.50004999 0 0 0 0.01189,-0.0212 l 0.06821,-0.15038 a 0.50004999,0.50004999 0 0 0 0.0098,-0.0238 l 0.06098,-0.15399 a 0.50004999,0.50004999 0 0 0 0.0078,-0.0233 l 0.05478,-0.15864 a 0.50004999,0.50004999 0 0 0 0.0078,-0.0233 l 0.04496,-0.16226 a 0.50004999,0.50004999 0 0 0 0.0062,-0.0253 l 0.03927,-0.16382 a 0.50004999,0.50004999 0 0 0 0.0057,-0.0253 l 0.02945,-0.16795 a 0.50004999,0.50004999 0 0 0 0.0041,-0.0258 l 0.02118,-0.1695 a 0.50004999,0.50004999 0 0 0 0.0021,-0.0258 l 0.01395,-0.17364 a 0.50004999,0.50004999 0 0 0 0.001,-0.0253 l 0.0036,-0.1757 -0.49971,-0.0119 0.49971,-0.0134 -0.0036,-0.17622 a 0.50004999,0.50004999 0 0 0 -0.0021,-0.0253 l -0.01395,-0.17363 a 0.50004999,0.50004999 0 0 0 -0.0021,-0.0233 z m -20.53414,0.12351 c -0.50892,0 -0.73639,0.39501 -0.73639,0.92604 a 0.99569742,0.99569742 0 0 0 0.60668,1.00563 c 0.31609,0.15488 0.39532,0.24656 0.39532,0.43304 a 0.24971459,0.24971459 0 0 1 -0.27181,0.27802 0.44253219,0.44253219 0 0 1 -0.41755,-0.28783 l -0.3762,0.41754 a 0.85345493,0.85345493 0 0 0 0.83767,0.52452 c 0.47414,0 0.73019,-0.37614 0.73019,-0.94826 a 0.92931759,0.92931759 0 0 0 -0.6289,-1.01441 c -0.26236,-0.11696 -0.37311,-0.22479 -0.37311,-0.41445 0,-0.18965 0.07277,-0.27802 0.2403,-0.27802 0.16753,0 0.29091,0.0791 0.3731,0.29094 l 0.37311,-0.40773 a 0.78391416,0.78391416 0 0 0 -0.75241,-0.52503 z m 5.33559,0 c -0.51207,0 -0.73949,0.39501 -0.73949,0.92604 a 0.99569742,0.99569742 0 0 0 0.6196,1.00563 c 0.31609,0.15488 0.39481,0.24656 0.39481,0.43304 a 0.24971459,0.24971459 0 0 1 -0.26872,0.27802 0.44569313,0.44569313 0 0 1 -0.42013,-0.28783 l -0.3762,0.40462 a 0.85661588,0.85661588 0 0 0 0.83767,0.52504 c 0.47731,0 0.73329,-0.37614 0.73329,-0.94827 a 0.92931759,0.92931759 0 0 0 -0.6289,-1.002 c -0.26552,-0.11696 -0.37311,-0.22479 -0.37311,-0.41445 0,-0.18965 0.07267,-0.27802 0.2403,-0.27802 0.16753,0 0.29091,0.0791 0.3731,0.29094 l 0.36019,-0.40773 a 0.78707511,0.78707511 0 0 0 -0.75241,-0.52503 z m 1.83348,0 c -0.32609,0 -0.59205,0.2022 -0.72761,0.63769 v 5.2e-4 c -0.0628,0.20195 -0.09715,0.45368 -0.09715,0.75912 v 0.50281 c 0,0.94828 0.34746,1.39682 0.82476,1.39682 0.21833,0 0.4067,-0.0939 0.54777,-0.28577 l -5.2e-4,-5.2e-4 c 0.16733,-0.22756 0.2682,-0.5931 0.2682,-1.11104 v -0.50281 c 0,-0.96409 -0.34131,-1.39682 -0.81545,-1.39682 z m 1.1312,0.047 v 0.0796 l 5.1e-4,5.2e-4 v 3.12229 h 0.5023 v -1.21078 h 0.25941 l 0.35037,1.21078 h 0.55345 l -0.40152,-1.34618 a 0.97357085,0.97357085 0 0 0 0.32194,-0.78186 0.97357085,0.97357085 0 0 0 -0.0062,-0.0651 c 0,-0.67012 -0.31593,-1.00924 -0.79323,-1.00924 z m -7.25744,5.1e-4 v 3.20188 h 1.32136 v -0.64131 h -0.81855 v -0.69556 h 0.72709 v -0.63872 h -0.72709 v -0.58446 h 0.81855 v -0.64183 z m 1.58078,0 v 3.20188 h 0.47387 v -1.77302 l 0.76843,1.77302 h 0.40773 v -3.20188 h -0.47439 v 1.79524 l -0.77722,-1.79524 z m 10.12755,0.046 -0.0083,0.0915 a 0.50004999,0.50004999 0 0 0 0,0.0253 l -0.0036,0.17622 a 0.50004999,0.50004999 0 0 0 0,0.0253 l 0.0036,0.1757 a 0.50004999,0.50004999 0 0 0 0,0.0253 l 0.01395,0.17364 a 0.50004999,0.50004999 0 0 0 0.0041,0.0258 l 0.02118,0.1695 a 0.50004999,0.50004999 0 0 0 0.0041,0.0258 l 0.02945,0.16795 a 0.50004999,0.50004999 0 0 0 0.0057,0.0253 l 0.0372,0.16382 a 0.50004999,0.50004999 0 0 0 0.0062,0.0253 l 0.04651,0.16226 a 0.50004999,0.50004999 0 0 0 0.0083,0.0233 l 0.05271,0.15864 a 0.50004999,0.50004999 0 0 0 0.0077,0.0233 l 0.06253,0.15399 a 0.50004999,0.50004999 0 0 0 0.01034,0.0238 l 0.06821,0.15038 a 0.50004999,0.50004999 0 0 0 0.0098,0.0212 l 0.07648,0.14883 a 0.50004999,0.50004999 0 0 0 0.01137,0.0212 l 0.01602,0.0294 0.86713,-0.49816 -0.01034,-0.0196 -0.06408,-0.12505 -0.05891,-0.12868 -0.05271,-0.13281 -0.04496,-0.13487 -0.04082,-0.1385 -0.03101,-0.14056 -0.02532,-0.14469 -0.01963,-0.14469 -0.01189,-0.14831 -0.0021,-0.15038 0.0021,-0.15038 0.0083,-0.0822 z m -5.58209,0.54777 c 0.20546,0 0.31574,0.23079 0.31574,0.75551 v 0.49971 c 0,0.24617 -0.02473,0.42499 -0.07183,0.54828 v 5.2e-4 c -0.0533,0.13951 -0.13483,0.20671 -0.24391,0.20671 -0.20546,0 -0.31626,-0.23028 -0.31626,-0.755 v -0.49402 -0.006 c 0,-0.52472 0.1108,-0.75551 0.31626,-0.75551 z m 1.63401,0.0481 h 0.0155 0.20877 c 0.2023,0 0.34779,0.0598 0.34779,0.36638 0,0.003 -4.9e-4,0.006 -5.2e-4,0.009 -0.002,0.2971 -0.12808,0.33228 -0.33435,0.33228 h -0.0124 -0.22479 z m 14.121618,0.35501 v 1.70119 l -0.004,0.17002 -0.0139,0.16019 -0.0196,0.15813 -0.0274,0.15658 -0.0351,0.15193 -0.0429,0.15038 -0.04858,0.14676 -0.05684,0.14263 -0.06253,0.14056 -0.07028,0.13642 -0.0739,0.13126 -0.08216,0.12868 -0.0646,0.0879 0.81649,0.58032 0.0703,-0.0997 a 0.50004999,0.50004999 0 0 0 0.0139,-0.0196 l 0.0935,-0.14831 a 0.50004999,0.50004999 0 0 0 0.014,-0.0217 l 0.0878,-0.15193 a 0.50004999,0.50004999 0 0 0 0.01,-0.0217 l 0.0822,-0.15813 a 0.50004999,0.50004999 0 0 0 0.01,-0.0217 l 0.0724,-0.16175 a 0.50004999,0.50004999 0 0 0 0.01,-0.0238 l 0.0667,-0.16588 a 0.50004999,0.50004999 0 0 0 0.008,-0.0217 l 0.0568,-0.17156 a 0.50004999,0.50004999 0 0 0 0.008,-0.0233 l 0.0491,-0.17415 a 0.50004999,0.50004999 0 0 0 0.008,-0.0232 l 0.0393,-0.17777 a 0.50004999,0.50004999 0 0 0 0.006,-0.0232 l 0.0315,-0.1819 a 0.50004999,0.50004999 0 0 0 0.004,-0.0233 l 0.0232,-0.18345 a 0.50004999,0.50004999 0 0 0 0.002,-0.0258 l 0.0155,-0.18552 a 0.50004999,0.50004999 0 0 0 0,-0.0253 l 0.006,-0.18913 a 0.50004999,0.50004999 0 0 0 0,-5.2e-4 0.50004999,0.50004999 0 0 0 0,-5.2e-4 0.50004999,0.50004999 0 0 0 0,-5.1e-4 0.50004999,0.50004999 0 0 0 0,-5.2e-4 0.50004999,0.50004999 0 0 0 0,-5.2e-4 0.50004999,0.50004999 0 0 0 0,-5.1e-4 0.50004999,0.50004999 0 0 0 0,-5.2e-4 0.50004999,0.50004999 0 0 0 0,-5.2e-4 0.50004999,0.50004999 0 0 0 0,-5.1e-4 0.50004999,0.50004999 0 0 0 0,-5.2e-4 0.50004999,0.50004999 0 0 0 0,-5.2e-4 0.50004999,0.50004999 0 0 0 0,-5.1e-4 0.50004999,0.50004999 0 0 0 0,-5.2e-4 0.50004999,0.50004999 0 0 0 0,-5.2e-4 0.50004999,0.50004999 0 0 0 0,-5.1e-4 0.50004999,0.50004999 0 0 0 0,-5.2e-4 0.50004999,0.50004999 0 0 0 0,-5.2e-4 0.50004999,0.50004999 0 0 0 0,-5.1e-4 0.50004999,0.50004999 0 0 0 0,-5.2e-4 0.50004999,0.50004999 0 0 0 0,-5.2e-4 0.50004999,0.50004999 0 0 0 0,-5.2e-4 0.50004999,0.50004999 0 0 0 0,-5.1e-4 0.50004999,0.50004999 0 0 0 0,-5.2e-4 v -1.70687 z m -8.306468,1.44177 -0.68937,0.72244 0.08372,0.0801 a 0.50004999,0.50004999 0 0 0 0.01757,0.0176 l 0.1235,0.10749 a 0.50004999,0.50004999 0 0 0 0.01913,0.0134 l 0.12919,0.1018 a 0.50004999,0.50004999 0 0 0 0.01912,0.0155 l 0.13281,0.0941 a 0.50004999,0.50004999 0 0 0 0.01963,0.0134 l 0.13901,0.0899 a 0.50004999,0.50004999 0 0 0 0.02119,0.0114 l 0.14263,0.0822 a 0.50004999,0.50004999 0 0 0 0.0217,0.0119 l 0.14624,0.076 a 0.50004999,0.50004999 0 0 0 0.02326,0.0103 l 0.15038,0.0682 a 0.50004999,0.50004999 0 0 0 0.02377,0.01 l 0.15399,0.0605 a 0.50004999,0.50004999 0 0 0 0.02378,0.0103 l 0.15813,0.0527 a 0.50004999,0.50004999 0 0 0 0.02325,0.008 l 0.16226,0.047 a 0.50004999,0.50004999 0 0 0 0.02532,0.006 l 0.16382,0.0367 a 0.50004999,0.50004999 0 0 0 0.02532,0.006 l 0.05684,0.01 0.1757,-0.98444 -0.04495,-0.008 -0.14056,-0.0331 -0.1385,-0.0393 -0.13487,-0.045 -0.13281,-0.0527 -0.12867,-0.0584 -0.12506,-0.0646 -0.12299,-0.0703 -0.11731,-0.0739 -0.11524,-0.0822 -0.10955,-0.0858 -0.10542,-0.092 z m 3.88865,0.16382 -0.10956,0.0858 -0.11317,0.0822 -0.11885,0.0744 -0.12144,0.0703 -0.12661,0.0641 -0.12919,0.0589 -0.13281,0.0527 -0.13488,0.045 -0.13849,0.0388 -0.14056,0.0331 -0.14263,0.0258 -0.14262,0.0176 0.12505,0.99219 0.15607,-0.0196 a 0.50004999,0.50004999 0 0 0 0.02532,-0.004 l 0.16795,-0.0294 a 0.50004999,0.50004999 0 0 0 0.02377,-0.006 l 0.16588,-0.0372 a 0.50004999,0.50004999 0 0 0 0.02325,-0.006 l 0.16227,-0.0465 a 0.50004999,0.50004999 0 0 0 0.02325,-0.008 l 0.1602,-0.0527 a 0.50004999,0.50004999 0 0 0 0.0217,-0.01 l 0.15607,-0.0605 a 0.50004999,0.50004999 0 0 0 0.0217,-0.0103 l 0.15245,-0.0682 a 0.50004999,0.50004999 0 0 0 0.02118,-0.01 l 0.14831,-0.0765 a 0.50004999,0.50004999 0 0 0 0.01964,-0.0114 l 0.1447,-0.0822 a 0.50004999,0.50004999 0 0 0 0.01963,-0.0119 l 0.1385,-0.0894 a 0.50004999,0.50004999 0 0 0 0.01963,-0.0139 l 0.13436,-0.0935 a 0.50004999,0.50004999 0 0 0 0.01964,-0.0155 l 0.12919,-0.1018 a 0.50004999,0.50004999 0 0 0 0.01757,-0.0139 l 0.0077,-0.008 z m -23.13657,0.50384 -0.99219,0.12713 0.01137,0.092 a 0.50004999,0.50004999 0 0 0 0.0041,0.0233 l 0.03101,0.18138 a 0.50004999,0.50004999 0 0 0 0.0062,0.0238 l 0.04082,0.17777 a 0.50004999,0.50004999 0 0 0 0.0062,0.0232 l 0.04858,0.17364 a 0.50004999,0.50004999 0 0 0 0.0083,0.0232 l 0.05632,0.17208 a 0.50004999,0.50004999 0 0 0 0.0083,0.0217 l 0.06615,0.16588 a 0.50004999,0.50004999 0 0 0 0.01033,0.0233 l 0.07235,0.16227 a 0.50004999,0.50004999 0 0 0 0.0098,0.0217 l 0.08217,0.15813 a 0.50004999,0.50004999 0 0 0 0.01136,0.0212 l 0.08785,0.15244 a 0.50004999,0.50004999 0 0 0 0.01189,0.0217 l 0.0956,0.14831 a 0.50004999,0.50004999 0 0 0 0.01395,0.0196 l 0.10129,0.14262 a 0.50004999,0.50004999 0 0 0 0.01395,0.0191 l 0.10749,0.13901 a 0.50004999,0.50004999 0 0 0 0.0155,0.0176 l 0.11524,0.13281 a 0.50004999,0.50004999 0 0 0 0.0155,0.0176 l 0.12093,0.12661 a 0.50004999,0.50004999 0 0 0 0.01808,0.0176 l 0.12661,0.12144 a 0.50004999,0.50004999 0 0 0 0.01757,0.0155 l 0.13281,0.11524 a 0.50004999,0.50004999 0 0 0 0.01757,0.0155 l 0.13901,0.10749 a 0.50004999,0.50004999 0 0 0 0.01912,0.014 l 0.14263,0.10336 a 0.50004999,0.50004999 0 0 0 0.01963,0.0119 l 0.14831,0.0956 a 0.50004999,0.50004999 0 0 0 0.02171,0.0114 l 0.15244,0.0879 a 0.50004999,0.50004999 0 0 0 0.02119,0.0119 l 0.15813,0.0822 a 0.50004999,0.50004999 0 0 0 0.0217,0.01 l 0.16227,0.0724 a 0.50004999,0.50004999 0 0 0 0.02325,0.01 l 0.16588,0.0667 a 0.50004999,0.50004999 0 0 0 0.02378,0.008 l 0.0057,0.002 0.31833,-0.94723 -0.13643,-0.0548 -0.14056,-0.0625 -0.13487,-0.0703 -0.13281,-0.076 -0.12919,-0.0801 -0.12299,-0.0879 -0.11886,-0.0941 -0.11369,-0.0992 -0.10904,-0.10387 -0.10541,-0.10904 -0.09974,-0.11524 -0.09198,-0.11937 -0.08785,-0.12299 -0.08165,-0.12867 -0.07648,-0.13126 -0.07028,-0.13643 -0.06253,-0.14056 -0.05633,-0.14262 -0.04909,-0.14676 -0.04289,-0.15038 -0.03514,-0.15193 -0.02739,-0.15658 z m 26.36324,2.07068 -0.07441,0.0584 -0.12299,0.0878 -0.12867,0.0801 -0.13126,0.076 -0.13643,0.0708 -0.14056,0.062 -0.14263,0.0568 -0.14676,0.0486 -0.15037,0.0434 -0.15193,0.0351 -0.15658,0.0274 -0.15813,0.0191 -0.1602,0.0119 -0.17002,0.006 h -1.54099 v 0.99994 h 1.5472 a 0.50004999,0.50004999 0 0 0 0.01136,0 l 0.18966,-0.006 a 0.50004999,0.50004999 0 0 0 0.02532,0 l 0.18552,-0.0155 a 0.50004999,0.50004999 0 0 0 0.02532,-0.002 l 0.18397,-0.0233 a 0.50004999,0.50004999 0 0 0 0.02532,-0.004 l 0.17932,-0.031 a 0.50004999,0.50004999 0 0 0 0.02377,-0.006 l 0.17776,-0.0408 a 0.50004999,0.50004999 0 0 0 0.02326,-0.006 l 0.17363,-0.0486 a 0.50004999,0.50004999 0 0 0 0.02532,-0.008 l 0.17002,-0.0563 a 0.50004999,0.50004999 0 0 0 0.0217,-0.008 l 0.16588,-0.0661 a 0.50004999,0.50004999 0 0 0 0.02326,-0.0103 l 0.16226,-0.0723 a 0.50004999,0.50004999 0 0 0 0.02171,-0.01 l 0.15813,-0.0822 a 0.50004999,0.50004999 0 0 0 0.02118,-0.0114 l 0.15245,-0.0879 a 0.50004999,0.50004999 0 0 0 0.0217,-0.0119 l 0.14831,-0.0956 a 0.50004999,0.50004999 0 0 0 0.01964,-0.0119 l 0.14263,-0.10335 a 0.50004999,0.50004999 0 0 0 0.01912,-0.0139 l 0.08423,-0.0646 z m 8.336958,0.0765 -1.45831,0.58963 c 0.0156,0.17283 0.0344,0.34864 0.0563,0.5271 l 1.44487,-0.58446 c -0.0177,-0.181 -0.0322,-0.35849 -0.0429,-0.53227 z m -31.811488,0.59686 -0.07442,0.99632 0.08785,0.008 a 0.50004999,0.50004999 0 0 0 0.02533,0 l 0.18965,0.006 a 0.50004999,0.50004999 0 0 0 0.01188,0 h 3.72226 v -0.99994 h -3.71657 l -0.17002,-0.006 z m 4.96249,0.0103 v 0.99994 h 4.00027 v -0.99994 z m 5.00021,0 v 0.99994 h 3.99975 v -0.99994 z m 5.00021,0 v 0.99994 h 3.99975 v -0.99994 z m 16.985008,0.68729 -1.42782,0.57723 c 0.0305,0.17276 0.066,0.34211 0.10594,0.50746 l 1.40921,-0.57051 c -0.021,-0.10348 -0.0397,-0.2094 -0.0568,-0.31729 -0.0106,-0.0663 -0.0208,-0.13152 -0.0305,-0.19689 z m 0.27595,1.23766 -1.38854,0.56172 c 0.0564,0.16296 0.11708,0.32153 0.18293,0.47594 l 1.38286,-0.55914 c -0.0645,-0.15281 -0.12361,-0.31242 -0.17725,-0.47852 z" />
  </g>
</svg>
