<?xml version="1.0" encoding="UTF-8" standalone="no"?>
<!-- Created with Inkscape (http://www.inkscape.org/) -->

<svg
   width="59.199131mm"
   height="27.759094mm"
   viewBox="0 0 59.199131 27.759094"
   version="1.1"
   id="svg2128"
   inkscape:version="1.2.2 (b0a8486541, 2022-12-01)"
   sodipodi:docname="obs-classlic.svg"
   xmlns:inkscape="http://www.inkscape.org/namespaces/inkscape"
   xmlns:sodipodi="http://sodipodi.sourceforge.net/DTD/sodipodi-0.dtd"
   xmlns="http://www.w3.org/2000/svg"
   xmlns:svg="http://www.w3.org/2000/svg">
  <sodipodi:namedview
     id="namedview2130"
     pagecolor="#ffffff"
     bordercolor="#666666"
     borderopacity="1.0"
     inkscape:showpageshadow="2"
     inkscape:pageopacity="0.0"
     inkscape:pagecheckerboard="0"
     inkscape:deskcolor="#d1d1d1"
     inkscape:document-units="mm"
     showgrid="false"
     inkscape:zoom="0.914906"
     inkscape:cx="-51.917902"
     inkscape:cy="-32.790254"
     inkscape:window-width="2560"
     inkscape:window-height="1363"
     inkscape:window-x="0"
     inkscape:window-y="0"
     inkscape:window-maximized="1"
     inkscape:current-layer="layer1" />
  <defs
     id="defs2125" />
  <g
     inkscape:label="Layer 1"
     inkscape:groupmode="layer"
     id="layer1"
     transform="translate(-75.666258,-157.03282)">
    <path
       id="path1304"
       style="color:#000000;fill:#000000;-inkscape-stroke:none"
       d="m 124.24694,157.03282 c -0.51474,-3e-5 -0.94336,0.43047 -0.9462,0.95033 l -0.0434,8.67854 c 0,0.001 0,0.002 0,0.003 -1.4e-4,0.12728 0.0252,0.25263 0.0739,0.37 l 2.0345,4.94595 c 0.0507,0.14278 0.10771,0.2819 0.1726,0.41807 3.3e-4,8.6e-4 6.6e-4,0.002 10e-4,0.003 6.9e-4,0.002 0.002,0.004 0.003,0.006 0.003,0.006 0.006,0.0128 0.009,0.0191 5.6e-4,0.001 0.002,0.001 0.003,0.003 0.60209,1.23866 1.76584,2.15082 3.1502,2.39727 -0.0164,1.59866 -0.15045,3.18562 -0.68833,4.5315 -0.58651,1.46756 -1.59977,2.67642 -3.63079,3.49023 -1.52507,0.61108 -3.20587,0.5844 -4.55476,-0.0724 -1.34888,-0.65674 -2.40387,-1.91109 -2.73265,-3.9827 h -0.002 c -0.23621,-1.4756 -0.20443,-2.80197 -0.0481,-4.0287 l -1.572,0.63562 c -0.0877,1.11418 -0.0699,2.32122 0.13953,3.62975 0.39485,2.48792 1.78587,4.23381 3.55637,5.09582 1.77049,0.862 3.88221,0.87239 5.77174,0.11523 2.36624,-0.94812 3.75242,-2.54372 4.46485,-4.32635 0.65531,-1.63969 0.78235,-3.4124 0.79633,-5.08806 2.03818,-0.36051 3.6003,-2.16601 3.6003,-4.32376 v -3.86747 h 0.11575 c 3.3e-4,0 6.7e-4,0 0.001,0 0.51585,-10e-4 0.94363,-0.43502 0.94361,-0.95601 v -6.58259 c 4.3e-4,-0.52128 -0.42748,-0.95428 -0.94361,-0.9555 -3.3e-4,0 -6.7e-4,0 -0.001,0 h -0.11627 v -0.15244 c 4.2e-4,-0.52213 -0.42923,-0.95552 -0.94619,-0.9555 z m 0.0481,1.00459 h 8.51524 v 0.60565 c -1.5e-4,0.27767 0.22271,0.50285 0.49764,0.50281 h 0.56328 v 6.48436 h -0.56328 c -0.27473,-4e-5 -0.49751,0.22482 -0.49764,0.50229 v 4.36976 c 0,1.86893 -1.50183,3.38584 -3.35225,3.38584 -1.3234,0 -2.46718,-0.77935 -3.01274,-1.90428 -0.003,-0.005 -0.005,-0.009 -0.008,-0.014 -6.2e-4,-0.001 -2.1e-4,-0.003 -5.2e-4,-0.004 -0.0532,-0.11142 -0.10034,-0.22577 -0.14159,-0.34416 -0.003,-0.009 -0.006,-0.0173 -0.009,-0.0258 l -2.03243,-4.94078 z m 1.60455,1.76578 c -0.35746,-8e-5 -0.64721,0.29269 -0.64699,0.65371 v 3.6375 c 6e-5,0.36082 0.28973,0.65327 0.64699,0.65319 h 6.24355 c 0.35726,8e-5 0.64693,-0.29237 0.64699,-0.65319 v -3.6375 c 2.2e-4,-0.36102 -0.28953,-0.65379 -0.64699,-0.65371 z m -17.67851,0.30334 -27.013342,0.002 -0.42994,0.016 -0.43719,0.0527 -0.43201,0.0879 -0.42375,0.12093 -0.41393,0.15244 -0.39842,0.18759 -0.38292,0.21652 -0.36536,0.24805 -0.34364,0.27543 -0.32246,0.30076 -0.29456,0.32608 -0.26975,0.34985 -0.24185,0.36742 -0.21135,0.3886 -0.17932,0.39998 -0.14676,0.41651 -0.11317,0.4253 -0.0801,0.43408 -0.045,0.43925 -0.01,0.43925 0.0253,0.43977 0.0584,0.43718 0.0941,0.42995 0.12454,0.41393 4.39301,12.6447 0.0977,0.26355 0.11524,0.26148 0.12661,0.25632 0.14056,0.24805 0.15451,0.24184 0.16588,0.23255 0.1757,0.22479 0.18965,0.21446 0.19947,0.20515 0.21084,0.19534 0.21859,0.18345 0.22841,0.17208 0.23823,0.1602 0.24443,0.14624 0.25373,0.13488 0.25787,0.12144 0.26562,0.10697 0.26975,0.0941 0.27543,0.0801 0.27905,0.0661 0.27957,0.0512 0.28474,0.0367 0.28525,0.0217 0.27957,0.008 h 22.630662 l 0.12868,-0.004 0.13487,-0.014 0.13488,-0.0217 0.13281,-0.031 0.12919,-0.0393 0.12867,-0.0486 0.12299,-0.0568 0.12093,-0.0641 0.11368,-0.0724 0.11111,-0.078 0.10542,-0.0863 0.0977,-0.0935 0.094,-0.0977 0.0879,-0.10749 0.078,-0.10955 0.0724,-0.11524 0.0641,-0.12092 0.0568,-0.12299 0.047,-0.12713 0.0387,-0.12867 0.0315,-0.13488 0.0232,-0.13487 0.014,-0.13488 0.002,-0.12867 v -17.54995 c 0.83245,-0.18887 1.89406,-0.27953 2.87735,-0.17001 1.14023,0.127 2.13896,0.52105 2.68975,1.1777 0.6618,0.78901 0.89731,1.51222 0.94103,2.35386 0.0389,0.74929 -0.1017,1.59763 -0.31884,2.55799 l 1.66966,-0.67541 c 0.11537,-0.65744 0.18126,-1.30658 0.14728,-1.96061 -0.0575,-1.10672 -0.43566,-2.22102 -1.29088,-3.24063 -0.91195,-1.08731 -2.30078,-1.55 -3.67212,-1.70273 -0.38569,-0.043 -0.77277,-0.0619 -1.15394,-0.0594 -0.66029,0.004 -1.30148,0.0733 -1.88929,0.18655 v -0.51108 l -0.004,-0.12713 -0.014,-0.13642 -0.0212,-0.13488 -0.0315,-0.13281 -0.0387,-0.12919 -0.0491,-0.12661 -0.0548,-0.12505 -0.0646,-0.11938 -0.0718,-0.1173 -0.0801,-0.10904 -0.0863,-0.10542 -0.0935,-0.0997 -0.0977,-0.092 -0.10542,-0.0858 -0.11162,-0.0801 -0.11524,-0.0724 -0.11886,-0.0646 -0.12505,-0.0563 -0.12713,-0.047 -0.12867,-0.0388 -0.13281,-0.0315 -0.13488,-0.0217 -0.13487,-0.0134 -0.12868,-0.006 z m -0.0176,0.99994 h 0.0176 l 0.0703,0.004 0.0703,0.006 0.0703,0.0114 0.0687,0.016 0.0682,0.0212 0.0646,0.0253 0.0646,0.0294 0.0625,0.0331 0.0584,0.0372 0.0584,0.0408 0.0548,0.045 0.0527,0.0491 0.047,0.0506 0.045,0.0548 0.0408,0.0568 0.0372,0.0605 0.0331,0.0625 0.0295,0.0641 0.0253,0.0646 0.0196,0.0682 0.0176,0.0687 0.01,0.0703 0.008,0.0703 0.002,0.078 v 19.5647 l -0.002,0.078 -0.006,0.0703 -0.0119,0.0682 -0.0155,0.0682 -0.0212,0.0687 -0.0258,0.0661 -0.0289,0.0646 -0.0331,0.0625 -0.0372,0.0584 -0.0414,0.0589 -0.0429,0.0527 -0.0486,0.0527 -0.0527,0.0486 -0.0548,0.045 -0.0568,0.0408 -0.0605,0.0372 -0.0625,0.0331 -0.0641,0.0295 -0.0646,0.0238 -0.0682,0.0212 -0.0687,0.0155 -0.0703,0.0119 -0.0703,0.008 -0.078,0.002 H 85.612258 l -0.24237,-0.006 -0.23461,-0.0176 -0.23202,-0.0315 -0.23048,-0.0408 -0.22893,-0.0548 -0.22427,-0.0667 -0.22066,-0.076 -0.21911,-0.0899 -0.21084,-0.0977 -0.2067,-0.1111 -0.20154,-0.12144 -0.19534,-0.13074 -0.18759,-0.14056 -0.17931,-0.15038 -0.17208,-0.15813 -0.16382,-0.16795 -0.15451,-0.17777 -0.14625,-0.18345 -0.13487,-0.19172 -0.12713,-0.1974 -0.11523,-0.20464 -0.10336,-0.20929 -0.0935,-0.21498 -0.0863,-0.22427 -4.38061,-12.61732 -0.10749,-0.35553 -0.0765,-0.3514 -0.0486,-0.35967 -0.0217,-0.35915 0.008,-0.36122 0.0372,-0.35967 0.0661,-0.35502 0.092,-0.34985 0.12092,-0.34003 0.14831,-0.32969 0.17208,-0.31833 0.19741,-0.30127 0.22065,-0.28681 0.24392,-0.26768 0.26355,-0.24598 0.28163,-0.22686 0.29869,-0.20102 0.31471,-0.17984 0.32608,-0.15192 0.33951,-0.12713 0.34779,-0.0977 0.35346,-0.0724 0.35967,-0.0429 0.37104,-0.0134 z m -26.984402,0.49971 c -2.23303,1.5e-4 -4.05474,1.82199 -4.05453,4.05505 1.1e-4,2.23283 1.82172,4.05232 4.05453,4.05247 2.23309,1.8e-4 4.05288,-1.81941 4.05299,-4.05247 2.1e-4,-2.23328 -1.81968,-4.05523 -4.05299,-4.05505 z m 0,0.99994 c 1.69282,-1.3e-4 3.05321,1.36026 3.05305,3.05305 v 0.002 c -9e-5,1.6926 -1.36041,3.05266 -3.05305,3.05252 -1.69241,-1.1e-4 -3.0545,-1.3601 -3.05459,-3.05252 v -0.002 c -1.6e-4,-1.69261 1.362,-3.05294 3.05459,-3.05305 z m 13.61674,0.34055 c -0.77444,0 -1.35289,0.70218 -1.35289,2.28203 v 0.81597 c 0,0.34655 0.0301,0.649 0.0827,0.91416 0.18405,0.92786 0.66388,1.36736 1.2702,1.36736 0.77444,0 1.34721,-0.72232 1.34721,-2.28152 v -0.81597 c 0,-0.72134 -0.12097,-1.25726 -0.32453,-1.62936 -0.24227,-0.44286 -0.60184,-0.65267 -1.02268,-0.65267 z m 1.8588,0.0724 v 5.23069 h 0.82579 v -1.76579 h 0.46458 c 0.0628,0 0.12297,-0.005 0.1819,-0.0129 l -0.0196,-1.08623 c -0.0853,0.0366 -0.18795,0.0558 -0.31264,0.0558 h -0.31471 v -1.37355 h 0.31471 c 0.11298,0 0.20898,0.0163 0.28938,0.0465 l -0.0186,-1.08934 c -0.0394,-0.003 -0.0796,-0.005 -0.1204,-0.005 z m 1.41077,0.005 0.0191,1.08934 c 0.22839,0.086 0.33073,0.29202 0.33073,0.60513 0,0.36783 -0.0963,0.57541 -0.30747,0.66611 l 0.0196,1.08624 c 0.68764,-0.0876 1.10898,-0.68241 1.10898,-1.75235 0,-1.10038 -0.46336,-1.64058 -1.17047,-1.69447 z m 1.52652,-0.005 v 5.22966 h 2.158012 v -1.04283 h -1.33687 v -1.14102 h 1.18753 v -1.04283 h -1.18753 v -0.95498 h 1.33687 v -1.048 z m 2.581762,0 v 5.22966 h 0.77411 v -2.89077 l 1.2547,2.89078 h 0.66611 v -5.22966 h -0.77463 v 2.93781 l -1.26504,-2.93781 z m -14.771192,0.73277 v 3.5264 h 1.03249 v -1.24952 h 4.223 v -1.0325 h -4.223 v -1.24436 z m 7.39334,0.23823 c 0.20805,0 0.3559,0.14667 0.43874,0.46251 0.0508,0.19361 0.0775,0.44994 0.0775,0.77566 v 0.81597 c 0,0.85704 -0.18067,1.23403 -0.51625,1.23403 -0.33559,0 -0.51624,-0.37699 -0.51624,-1.23403 v -0.19274 -0.62322 c 0,-0.85704 0.18065,-1.23817 0.51624,-1.23817 z m 34.627352,4.24109 c -1.3188,0 -2.41536,1.06285 -2.41536,2.38125 0,1.31839 1.09656,2.38228 2.41536,2.38228 1.31881,0 2.4169,-1.06389 2.4169,-2.38228 0,-1.3184 -1.09809,-2.38125 -2.4169,-2.38125 z m -38.933542,0.90588 v 5.23018 h 0.82113 v -5.23018 z m 1.46657,0 v 5.23018 h 0.82063 v -1.3839 l 0.29972,-0.62477 0.73794,2.00867 h 0.98133 l -1.19269,-3.11351 1.01183,-2.11667 h -0.95498 l -0.88315,1.94097 v -1.94097 z m 3.21118,0 v 5.23018 h 2.158 v -1.04335 h -1.33738 v -1.1405 h 1.18752 v -1.04335 h -1.18752 v -0.95498 h 1.33738 v -1.048 z m -7.75974,0.005 v 5.22552 h 1.13223 0.16382 c 0.90868,0 1.27537,-0.66635 1.27537,-1.50275 0.0531,-0.47042 -0.13082,-0.93652 -0.49092,-1.24385 0.28131,-0.28981 0.42421,-0.68672 0.39222,-1.08934 0,-0.92283 -0.43919,-1.35804 -1.19527,-1.38648 -0.0265,-9.8e-4 -0.0523,-0.003 -0.0796,-0.003 z m 42.015532,0.18811 c 0.74874,0 1.32808,0.57713 1.32808,1.2826 0,0.70548 -0.57934,1.28365 -1.32808,1.28365 -0.74873,0 -1.32757,-0.57817 -1.32757,-1.28365 0,-0.70547 0.57884,-1.2826 1.32757,-1.2826 z m -25.59741,0.56637 v 1.24385 h -5.927282 v 1.04335 h 5.927282 v 1.23868 h 1.04283 v -3.52588 z m -15.592332,0.27802 h 0.2682 c 0.0572,0 0.10897,0.003 0.15555,0.009 0.32328,0.0403 0.40204,0.21812 0.40204,0.50694 0,0.31247 -0.13545,0.44335 -0.42943,0.45682 -0.017,7.8e-4 -0.0326,0.003 -0.0506,0.003 h -0.34572 z m 29.708272,0.16278 -1.70326,0.68885 c -0.0485,0.19877 -0.0979,0.40231 -0.14779,0.60978 l 1.70997,-0.69195 c 0.008,-0.0321 0.0157,-0.0646 0.0233,-0.0966 0.0406,-0.17111 0.08,-0.34088 0.11782,-0.51005 z m -0.35502,1.49345 -1.70067,0.68781 c -0.0432,0.19632 -0.0853,0.39683 -0.12557,0.60048 l 1.68206,-0.68006 c 0.0474,-0.20504 0.0957,-0.40746 0.14418,-0.60823 z m -29.353252,0.34726 h 0.33073 c 0.0133,0 0.0243,0.002 0.0372,0.002 v 5.2e-4 c 0.39055,0.009 0.56689,0.15549 0.56689,0.56534 0,0.42336 -0.17602,0.57878 -0.5426,0.57878 h -0.0563 -0.3359 z m 29.017352,1.13844 -1.64486,0.66507 c -0.0303,0.19147 -0.0581,0.3858 -0.0832,0.58343 l 1.61593,-0.65319 c 0.0351,-0.20076 0.0725,-0.39942 0.11213,-0.59531 z m -28.681452,1.86138 c -0.83124,0 -1.20303,0.64572 -1.20303,1.51309 -0.0617,0.70455 0.33894,1.36824 0.99116,1.64176 0.5163,0.25298 0.64544,0.40232 0.64544,0.70693 0.0311,0.25853 -0.1847,0.47963 -0.44391,0.45475 -0.30338,0.002 -0.57561,-0.18599 -0.68161,-0.47025 l -0.61443,0.68161 c 0.22732,0.54776 0.77633,0.89172 1.36839,0.85731 0.77444,0 1.19218,-0.61477 1.19218,-1.54926 0.10455,-0.72841 -0.32844,-1.4269 -1.02733,-1.65726 -0.42852,-0.19104 -0.60927,-0.36615 -0.60927,-0.67593 0,-0.30977 0.11911,-0.45475 0.39275,-0.45475 0.27363,0 0.47502,0.12951 0.60926,0.47542 l 0.60875,-0.66611 c -0.18214,-0.52045 -0.67701,-0.86584 -1.22835,-0.85731 z m 8.71471,0 c -0.8364,0 -1.20819,0.64572 -1.20819,1.51309 -0.0585,0.70989 0.35177,1.37525 1.01234,1.64176 0.51629,0.25298 0.64492,0.40232 0.64492,0.70693 0.0306,0.25624 -0.18156,0.47609 -0.43873,0.45475 -0.3048,0.002 -0.57888,-0.18518 -0.68678,-0.47025 l -0.61443,0.66094 c 0.22857,0.54671 0.77674,0.89014 1.36839,0.85731 0.77962,0 1.19786,-0.61477 1.19786,-1.54926 0.0939,-0.7212 -0.33703,-1.40762 -1.02733,-1.63659 -0.43368,-0.19104 -0.60926,-0.36615 -0.60926,-0.67593 0,-0.30977 0.11848,-0.45475 0.39222,-0.45475 0.27363,0 0.47502,0.12951 0.60926,0.47542 l 0.5886,-0.66611 c -0.18353,-0.51962 -0.67784,-0.86447 -1.22887,-0.85731 z m 2.994652,5.2e-4 c -0.532622,0 -0.966622,0.32996 -1.188042,1.04128 v 5.1e-4 c -0.10264,0.32986 -0.15916,0.74136 -0.15916,1.24024 v 0.82062 c 0,1.54888 0.5676,2.28203 1.347202,2.28203 0.3566,0 0.66411,-0.15329 0.89452,-0.46664 v -5.1e-4 c 0.2733,-0.37168 0.43718,-0.9689 0.43718,-1.81488 v -0.82114 c 0,-1.57469 -0.55727,-2.28151 -1.3317,-2.28151 z m 1.84744,0.0765 v 0.13022 l 0.001,0.001 v 5.09943 h 0.82062 v -1.97765 h 0.42375 l 0.57257,1.97765 h 0.90331 l -0.65526,-2.19935 c 0.36049,-0.3234 0.55395,-0.79346 0.52555,-1.27692 -0.002,-0.0356 -0.006,-0.0711 -0.0103,-0.10645 0,-1.09454 -0.51593,-1.64797 -1.29552,-1.64797 z m -11.853032,5.1e-4 v 5.23018 h 2.15801 v -1.048 h -1.33739 v -1.13585 h 1.18753 v -1.04283 h -1.18753 v -0.9555 h 1.33739 v -1.04803 z m 2.58124,0 v 5.23018 h 0.77463 v -2.89647 l 1.25419,2.89647 h 0.66611 v -5.23021 h -0.77412 v 2.93264 l -1.2702,-2.93264 z m 7.424352,0.97049 c 0.33559,0 0.51625,0.37699 0.51625,1.23403 v 0.81597 c 0,0.40207 -0.0415,0.69417 -0.11834,0.89555 l 5.2e-4,5.2e-4 c -0.087,0.22757 -0.2204,0.33745 -0.39843,0.33745 -0.335592,0 -0.516242,-0.37647 -0.516242,-1.23352 v -0.80667 -0.009 c 0,-0.85704 0.18065,-1.23403 0.516242,-1.23403 z m 2.66909,0.078 h 0.0243 0.001 0.34107 c 0.33042,0 0.5674,0.0981 0.5674,0.59893 0,0.006 -10e-4,0.009 -10e-4,0.015 h 10e-4 c -0.004,0.48527 -0.20983,0.5426 -0.54673,0.5426 h -0.0202 -0.3669 z"
       sodipodi:nodetypes="cccccccscsccssscccccscscscccccscccccccccccccsscccccccccccccccccccccccccccccccccccccccccccccccccccccccccccccccccccccccccccccccccccccccccccccsssccscsscccccccccccccccccccccccccccccccccccccccccccccccccccccccccccccccccccccccccccccccccccccccccccccccccccccccccccccccccccccccccccccccccscscssssssssssssssssssccccsccsccsccscccsccssccccccccccccccccccccccccccccccccccsssssscssssssssccccccccccccccccccccccccccccccccccscccsscsssssccccccccccscsssccccccsccccccccsccssccccccccccccccccccsscccccccccccccsscccsccsssccsssccccccccccccscccccccccccccccccccccccccsssccsscsscccssccsccc" />
  </g>
</svg>
