<?xml version="1.0" encoding="UTF-8" standalone="no"?>
<!-- Created with Inkscape (http://www.inkscape.org/) -->

<svg
   width="44.726517mm"
   height="34.869324mm"
   viewBox="0 0 44.726517 34.869324"
   version="1.1"
   id="svg1923"
   inkscape:version="1.2.2 (b0a8486541, 2022-12-01)"
   sodipodi:docname="obs-lite.svg"
   xmlns:inkscape="http://www.inkscape.org/namespaces/inkscape"
   xmlns:sodipodi="http://sodipodi.sourceforge.net/DTD/sodipodi-0.dtd"
   xmlns="http://www.w3.org/2000/svg"
   xmlns:svg="http://www.w3.org/2000/svg">
  <sodipodi:namedview
     id="namedview1925"
     pagecolor="#ffffff"
     bordercolor="#666666"
     borderopacity="1.0"
     inkscape:showpageshadow="2"
     inkscape:pageopacity="0.0"
     inkscape:pagecheckerboard="0"
     inkscape:deskcolor="#d1d1d1"
     inkscape:document-units="mm"
     showgrid="false"
     inkscape:zoom="0.914906"
     inkscape:cx="-103.2893"
     inkscape:cy="19.674152"
     inkscape:window-width="2560"
     inkscape:window-height="1363"
     inkscape:window-x="0"
     inkscape:window-y="0"
     inkscape:window-maximized="1"
     inkscape:current-layer="layer1" />
  <defs
     id="defs1920" />
  <g
     inkscape:label="Layer 1"
     inkscape:groupmode="layer"
     id="layer1"
     transform="translate(-89.264785,-143.0668)">
    <g
       id="g455"
       transform="translate(49.876754,100.39875)">
      <path
         id="path425"
         style="color:#000000;fill:#000000;-inkscape-stroke:none"
         d="m 71.030589,42.668052 c -1.306344,0 -2.372982,1.068188 -2.372982,2.374532 v 21.75216 c 0,1.306344 1.066638,2.372982 2.372982,2.372982 h 4.039546 v 1.975073 c 0,0.343303 0.250816,0.626188 0.57981,0.675928 -0.09316,1.346734 -1.201939,2.848964 -2.691825,3.597197 -1.558856,0.782862 -3.412694,0.885186 -4.74183,-0.06046 -0.03954,-0.02813 -0.07787,-0.05663 -0.116272,-0.08475 l -1.586983,0.641821 c 0.252409,0.226825 0.529717,0.449064 0.834058,0.665592 1.893285,1.34703 4.344078,1.151673 6.283337,0.177767 1.901965,-0.955176 3.458732,-2.838379 3.514514,-4.9413 0.317659,-0.0591 0.556555,-0.336497 0.556555,-0.671794 v -1.975073 h 4.040064 c 1.306344,0 2.372985,-1.066638 2.372985,-2.372982 v -21.75216 c 0,-1.306344 -1.066641,-2.374532 -2.372985,-2.374532 z m 0,0.999939 h 10.710974 c 0.769642,0 1.373043,0.60495 1.373043,1.374593 v 21.75216 c 0,0.769643 -0.603401,1.373043 -1.373043,1.373043 H 71.030589 c -0.769642,0 -1.373043,-0.6034 -1.373043,-1.373043 v -21.75216 c 0,-0.769643 0.603401,-1.374593 1.373043,-1.374593 z m 5.355228,0.302307 a 0.78561354,0.79036081 0 0 0 -0.785481,0.790649 0.78561354,0.79036081 0 0 0 0.785481,0.790133 0.78561354,0.79036081 0 0 0 0.785999,-0.790133 0.78561354,0.79036081 0 0 0 -0.785999,-0.790649 z m -20.896398,6.962882 -11.939323,0.0021 -0.320394,0.01189 -0.329696,0.03927 -0.324528,0.06615 -0.318327,0.08992 -0.310575,0.115238 -0.29869,0.14056 -0.289388,0.164331 -0.273368,0.185519 -0.259416,0.204638 -0.240295,0.228927 -0.222726,0.243913 -0.201021,0.261999 -0.181901,0.276986 -0.15813,0.290938 -0.136943,0.300757 -0.109037,0.312642 -0.0863,0.320394 -0.05839,0.326078 -0.03514,0.328146 -0.0078,0.332279 0.01964,0.329696 0.04496,0.328145 0.07028,0.324528 0.09354,0.306441 3.191536,9.193238 0.0739,0.195337 0.0863,0.197404 0.0956,0.191719 0.10542,0.187069 0.115239,0.181901 0.125057,0.173633 0.132808,0.170015 0.142627,0.160197 0.148311,0.154513 0.15813,0.146244 0.164331,0.136943 0.171566,0.128674 0.179834,0.120923 0.183451,0.111621 0.189653,0.09973 0.195337,0.09147 0.198954,0.0801 0.203089,0.07235 0.205155,0.05839 0.211357,0.05116 0.210839,0.03669 0.212907,0.02946 0.214457,0.0155 0.207223,0.0062 h 8.757605 l 0.09974,-0.0041 0.107487,-0.0098 0.107487,-0.01757 0.10542,-0.02532 0.101803,-0.03101 0.101286,-0.03721 0.09767,-0.04496 0.0956,-0.05064 0.09198,-0.05684 0.08578,-0.06253 0.08423,-0.07028 0.07803,-0.07235 0.07441,-0.07803 0.06821,-0.08578 0.06253,-0.0863 0.05633,-0.09147 0.05116,-0.0956 0.04496,-0.09767 0.03876,-0.101802 0.03152,-0.101286 0.02325,-0.105937 0.01757,-0.10697 0.01188,-0.107487 0.0021,-0.09974 v -7.679117 c 1.004088,0.01214 1.964631,0.08727 2.923336,0.548286 1.118131,0.537677 2.306241,1.619213 3.521749,3.980119 0.937477,1.820885 0.546841,3.850419 0.494027,6.107638 -0.0168,0.718112 0.0197,1.46308 0.168982,2.210201 l 1.389579,-0.56224 c -0.06521,-0.516655 -0.07153,-1.051583 -0.05839,-1.612821 0.04855,-2.074824 0.552138,-4.474889 -0.660425,-6.830074 -1.314555,-2.553285 -2.743196,-3.941786 -4.204912,-4.644678 -1.261397,-0.606567 -2.492347,-0.686481 -3.573942,-0.697115 V 52.57399 l -0.0021,-0.09922 -0.01188,-0.107487 -0.01757,-0.107487 -0.02532,-0.10542 -0.02945,-0.101802 -0.03876,-0.101286 -0.04496,-0.09767 -0.05116,-0.09612 -0.05633,-0.09147 -0.06253,-0.08578 -0.06821,-0.08423 -0.07441,-0.0801 -0.07803,-0.07235 -0.08216,-0.06821 -0.08992,-0.06459 -0.09147,-0.05633 -0.09405,-0.05116 -0.09767,-0.04289 -0.101286,-0.03876 -0.101803,-0.03152 -0.107487,-0.02532 -0.10542,-0.0155 -0.107487,-0.01189 -0.09974,-0.0041 z m -0.01757,1.000456 h 0.01757 l 0.04134,0.0016 0.04289,0.0041 0.04082,0.0078 0.04134,0.0098 0.04082,0.01189 0.03927,0.0155 0.03876,0.01757 0.03927,0.01964 0.03514,0.02119 0.03307,0.02584 0.03307,0.02687 0.03152,0.02946 0.02894,0.02945 0.02584,0.03307 0.02532,0.03514 0.02325,0.03514 0.01964,0.03721 0.01757,0.03927 0.01344,0.03876 0.01395,0.04134 0.0098,0.04082 0.0057,0.04082 0.0041,0.04289 0.0021,0.05116 v 14.211018 0.04858 l -0.0062,0.04289 -0.0057,0.04134 -0.0098,0.04082 -0.01188,0.04083 -0.0155,0.03927 -0.01757,0.03876 -0.01964,0.03721 -0.02325,0.03514 -0.02532,0.03514 -0.02584,0.03359 -0.02894,0.02894 -0.03152,0.03152 -0.03101,0.02532 -0.03514,0.02532 -0.03514,0.0217 -0.03927,0.01912 -0.03721,0.01757 -0.03876,0.01602 -0.04289,0.01137 -0.03927,0.0098 -0.04289,0.0078 -0.04134,0.0041 -0.05064,0.0021 h -8.728666 l -0.169499,-0.0062 -0.164331,-0.01137 -0.162264,-0.0217 -0.15968,-0.02946 -0.158647,-0.03669 -0.156063,-0.04496 -0.154512,-0.05478 -0.151929,-0.06046 -0.148828,-0.07028 -0.14211,-0.07648 -0.141077,-0.08372 -0.136426,-0.09198 -0.130741,-0.09767 -0.125057,-0.10542 -0.119372,-0.111104 -0.113172,-0.115239 -0.109554,-0.12299 -0.101286,-0.129191 -0.09405,-0.132808 -0.08785,-0.138493 -0.0801,-0.142627 -0.07235,-0.146761 -0.06615,-0.148311 -0.05839,-0.15813 -3.181718,-9.164299 -0.07648,-0.250114 -0.05426,-0.243913 -0.03359,-0.250113 -0.01344,-0.251665 0.0057,-0.252181 0.02532,-0.250114 0.04496,-0.245979 0.0646,-0.243913 0.08423,-0.236678 0.103353,-0.230477 0.118856,-0.220659 0.139009,-0.210839 0.153996,-0.198955 0.167949,-0.186035 0.183968,-0.171566 0.196887,-0.158129 0.207222,-0.14056 0.220659,-0.125057 0.226859,-0.10542 0.236162,-0.08785 0.241845,-0.06873 0.246497,-0.05064 0.249597,-0.02945 0.262,-0.0098 z m 23.637316,1.520837 a 0.15052408,0.15143365 0 0 0 -0.130224,0.07596 l -0.732772,1.276408 c -0.560134,-0.257183 -1.189108,-0.400493 -1.860352,-0.400493 -0.671243,0 -1.300225,0.143515 -1.860351,0.400493 l -0.732255,-1.276408 a 0.15062725,0.15153745 0 1 0 -0.260966,0.151412 l 0.72347,1.260905 c -1.242156,0.679694 -2.09161,1.944878 -2.215886,3.439583 h 8.692493 c -0.124418,-1.4947 -0.974317,-2.759884 -2.216402,-3.439578 l 0.72347,-1.260389 a 0.15052408,0.15143365 0 0 0 -0.130225,-0.227893 z m -29.920137,0.619601 c -2.156609,0 -3.91604,1.759432 -3.91604,3.91604 0,2.156609 1.759431,3.913973 3.91604,3.913973 2.156609,0 3.91604,-1.757364 3.91604,-3.913973 0,-2.156608 -1.759431,-3.91604 -3.91604,-3.91604 z m 0,0.999939 c 1.616169,0 2.915584,1.299931 2.915584,2.916101 0,1.61617 -1.299415,2.914034 -2.915584,2.914034 -1.616171,0 -2.916101,-1.297864 -2.916101,-2.914034 0,-0.02525 4.02e-4,-0.05035 10e-4,-0.07545 0.03975,-1.580949 1.32415,-2.840653 2.915068,-2.840653 z m 25.167973,1.334802 a 0.36198508,0.36417246 0 0 1 0.390674,0.363285 0.36239432,0.36458417 0 0 1 -0.362252,0.363802 0.36198508,0.36417246 0 0 1 -0.02842,-0.727087 z m 4.000789,0 a 0.36198508,0.36417246 0 0 1 0.390674,0.363285 0.36246253,0.3646528 0 0 1 -0.362252,0.363802 0.36198508,0.36417246 0 0 1 -0.02842,-0.727087 z m -12.582178,15.753044 -1.348755,0.545186 c 0.04941,0.16126 0.105563,0.322134 0.167949,0.482658 l 1.336869,-0.541052 c -0.06121,-0.160871 -0.112976,-0.323088 -0.156063,-0.486792 z m 0.475424,1.157552 -1.350306,0.54622 c 0.07807,0.149713 0.162617,0.29851 0.254765,0.446484 l 1.378211,-0.557589 c -0.105028,-0.144445 -0.198505,-0.289411 -0.28267,-0.435115 z m 0.783931,1.032495 -1.442289,0.583427 c 0.108274,0.137692 0.224058,0.274041 0.347265,0.409277 l 1.4981,-0.605648 c -0.14498,-0.129019 -0.279157,-0.257823 -0.403076,-0.387056 z" />
    </g>
  </g>
</svg>
