<?xml version="1.0" standalone="no"?>
<!DOCTYPE svg PUBLIC "-//W3C//DTD SVG 20010904//EN"
 "http://www.w3.org/TR/2001/REC-SVG-20010904/DTD/svg10.dtd">
<svg version="1.0" xmlns="http://www.w3.org/2000/svg"
 width="700.000000pt" height="700.000000pt" viewBox="0 0 700.000000 700.000000"
 preserveAspectRatio="xMidYMid meet">
<metadata>
Created by potrace 1.11, written by Peter Selinger 2001-2013
</metadata>
<g transform="translate(0.000000,700.000000) scale(0.100000,-0.100000)"
fill="#000000" stroke="none">
<path d="M2973 6282 c-69 -25 -113 -60 -157 -127 -96 -144 -101 -179 -101
-715 0 -394 2 -441 18 -494 46 -148 122 -250 222 -297 77 -37 184 -40 269 -8
103 38 200 148 248 280 23 63 23 69 23 514 0 323 -4 470 -13 520 -26 140 -107
262 -210 312 -75 36 -218 44 -299 15z m208 -257 c16 -9 42 -34 58 -56 51 -70
56 -111 55 -484 -1 -457 -13 -523 -100 -572 -47 -27 -121 -30 -165 -8 -43 23
-86 88 -99 150 -8 36 -10 184 -8 447 3 380 4 394 24 433 12 22 30 48 40 57 54
48 138 62 195 33z"/>
<path d="M3692 5469 l3 -824 92 -3 93 -3 2 313 3 313 155 6 c141 5 159 7 205
31 105 54 172 150 201 288 21 99 15 350 -10 427 -36 113 -139 224 -234 254
-22 7 -136 14 -275 16 l-237 5 2 -823z m427 540 c93 -20 129 -68 138 -184 11
-147 -14 -227 -86 -269 -27 -16 -58 -21 -148 -24 -63 -3 -118 -1 -123 4 -5 5
-12 116 -16 247 l-7 237 96 0 c53 0 119 -5 146 -11z"/>
<path d="M4620 5460 l0 -830 355 0 355 0 0 135 0 135 -250 0 -250 0 0 215 0
215 210 0 210 0 0 140 0 140 -210 0 -210 0 0 205 0 205 250 0 250 0 0 135 0
135 -355 0 -355 0 0 -830z"/>
<path d="M5490 5465 l0 -825 100 0 100 0 1 273 c1 149 4 378 8 507 6 230 6
234 23 203 17 -30 221 -528 343 -835 l59 -148 108 0 108 0 0 825 0 825 -105 0
-105 0 -1 -487 c-1 -269 -4 -499 -8 -512 -8 -28 8 -63 -242 554 l-178 440
-105 3 -106 3 0 -826z"/>
<path d="M750 5500 l0 -570 160 0 160 0 0 200 0 200 668 2 667 3 0 165 0 165
-667 3 -668 2 0 200 0 200 -160 0 -160 0 0 -570z"/>
<path d="M757 4323 c-4 -3 -7 -386 -7 -851 l0 -844 278 5 c192 3 289 8 315 18
84 29 172 139 202 254 20 80 21 309 0 390 -16 60 -64 142 -110 185 l-25 23 36
40 c117 129 140 417 49 598 -65 127 -131 166 -302 179 -138 11 -427 13 -436 3z
m524 -313 c43 -45 59 -91 59 -169 0 -74 -18 -129 -56 -166 -36 -36 -62 -43
-190 -52 -142 -9 -134 -22 -134 222 l0 205 142 0 141 0 38 -40z m-11 -675 c57
-33 85 -101 85 -205 0 -71 -4 -93 -25 -134 -42 -83 -58 -90 -226 -94 l-144 -4
0 224 c0 124 3 228 8 232 4 4 66 6 137 4 108 -2 136 -6 165 -23z"/>
<path d="M1760 3480 l0 -850 100 0 100 0 0 850 0 850 -100 0 -100 0 0 -850z"/>
<path d="M2200 3480 l0 -850 105 0 105 0 0 244 0 244 69 124 c38 68 74 123 81
123 14 0 27 -31 184 -440 l112 -290 117 -3 c96 -2 117 0 117 12 0 7 -88 237
-195 510 l-196 495 181 332 c100 182 179 333 176 336 -3 3 -58 6 -123 7 l-118
1 -194 -382 c-107 -211 -198 -383 -202 -383 -5 0 -10 172 -11 383 l-3 382
-102 3 -103 3 0 -851z"/>
<path d="M3227 4323 c-4 -3 -7 -386 -7 -850 l0 -843 370 0 370 0 0 135 0 135
-260 0 -260 0 2 223 3 222 218 3 217 2 0 135 0 135 -220 0 -220 0 0 215 0 215
260 0 260 0 0 140 0 140 -363 0 c-200 0 -367 -3 -370 -7z"/>
<path d="M5980 3870 l0 -200 -940 0 -940 0 0 -160 0 -160 938 -2 937 -3 3
-197 2 -198 155 0 155 0 0 560 0 560 -155 0 -155 0 0 -200z"/>
<path d="M1035 2351 c-117 -19 -187 -78 -256 -218 l-44 -88 -3 -149 c-5 -177
9 -244 68 -334 56 -86 109 -119 278 -173 123 -38 161 -61 186 -112 22 -45 26
-182 7 -240 -25 -73 -120 -126 -206 -113 -87 14 -141 77 -165 194 l-12 52 -95
0 -94 0 6 -57 c26 -225 101 -356 240 -419 172 -79 364 -11 477 167 59 93 85
313 54 457 -41 194 -118 273 -331 337 -184 55 -221 99 -213 255 6 133 53 190
155 190 100 0 166 -61 181 -167 l7 -48 101 -3 101 -3 -13 73 c-51 295 -202
435 -429 399z"/>
<path d="M4807 2350 c-71 -12 -129 -45 -182 -101 -108 -116 -142 -260 -152
-644 -9 -381 15 -595 81 -730 64 -128 160 -200 288 -211 200 -19 356 113 413
347 37 154 37 834 0 994 -36 157 -128 282 -235 322 -67 25 -149 34 -213 23z
m157 -288 c89 -49 101 -102 111 -477 7 -240 -3 -441 -25 -519 -17 -58 -81
-122 -130 -129 -91 -12 -165 28 -202 111 -29 65 -41 250 -35 552 6 279 15 347
58 416 47 77 135 95 223 46z"/>
<path d="M3839 2337 c-183 -52 -269 -202 -269 -474 0 -156 12 -209 63 -286 57
-83 119 -127 235 -167 187 -64 223 -91 243 -188 14 -71 5 -154 -24 -211 -42
-84 -151 -115 -245 -70 -60 29 -97 84 -112 164 l-12 65 -95 0 -95 0 7 -47 c11
-82 45 -204 70 -252 29 -59 95 -133 143 -163 33 -21 49 -23 157 -23 109 0 125
2 177 27 75 35 133 97 177 188 l36 75 0 190 0 190 -33 65 c-63 122 -98 154
-227 204 -202 78 -243 104 -272 175 -18 42 -20 136 -3 185 14 43 77 102 120
111 60 13 121 -3 161 -44 34 -33 48 -65 64 -143 5 -28 7 -28 79 -28 115 0 121
14 74 170 -27 89 -74 175 -117 212 -80 71 -206 102 -302 75z"/>
<path d="M1660 1510 l0 -830 355 0 355 0 0 125 0 125 -250 0 -250 0 0 225 0
225 213 2 212 3 3 133 3 132 -216 0 -215 0 0 210 0 210 250 0 250 0 0 135 0
135 -355 0 -355 0 0 -830z"/>
<path d="M2540 1510 l0 -830 105 0 105 0 1 213 c1 116 5 347 8 511 l6 299 204
-511 204 -511 104 -3 103 -3 0 833 0 832 -105 0 -105 0 0 -499 c0 -275 -4
-502 -9 -505 -7 -5 -157 355 -352 847 l-63 157 -103 0 -103 0 0 -830z"/>
<path d="M5460 1510 l0 -830 100 0 100 0 0 335 0 335 93 0 92 0 105 -335 105
-335 117 0 c65 0 118 2 118 3 0 2 -52 158 -115 345 -63 188 -115 349 -115 358
0 9 21 38 48 63 58 58 109 156 122 236 13 78 13 243 0 324 -19 116 -106 248
-192 292 -50 25 -186 38 -405 39 l-173 0 0 -830z m496 534 c46 -34 65 -67 76
-136 9 -49 9 -85 1 -139 -10 -65 -16 -77 -52 -113 l-41 -41 -140 -3 -140 -4 0
232 0 232 134 -4 c117 -3 138 -6 162 -24z"/>
</g>
</svg>
